<mxfile host="app.diagrams.net" modified="2020-09-19T15:42:44.603Z" agent="5.0 (Windows NT 10.0; Win64; x64) AppleWebKit/537.36 (KHTML, like Gecko) Chrome/68.0.3440.106 Safari/537.36" etag="nsW5Lgoo2ibjIQxzLHcQ" version="13.7.3" type="github">
  <diagram name="Page-1" id="38b20595-45e3-9b7f-d5ca-b57f44c5b66d">
    <mxGraphModel dx="1004" dy="490" grid="1" gridSize="10" guides="1" tooltips="1" connect="1" arrows="1" fold="1" page="1" pageScale="1" pageWidth="1100" pageHeight="850" background="#ffffff" math="0" shadow="0">
      <root>
        <mxCell id="0" />
        <mxCell id="1" parent="0" />
        <mxCell id="4AgcQlxPXhs_4YghqGDG-57" value="" style="verticalLabelPosition=bottom;html=1;verticalAlign=top;align=center;shape=mxgraph.floorplan.office_chair;fillColor=#FFFFFF;fontColor=#000000;" vertex="1" parent="1">
          <mxGeometry x="356" y="713" width="40" height="43" as="geometry" />
        </mxCell>
        <mxCell id="4AgcQlxPXhs_4YghqGDG-1" value="" style="verticalLabelPosition=bottom;html=1;verticalAlign=top;align=center;shape=mxgraph.floorplan.wall;fillColor=#000000;" vertex="1" parent="1">
          <mxGeometry x="79" y="785" width="390" height="20" as="geometry" />
        </mxCell>
        <mxCell id="4AgcQlxPXhs_4YghqGDG-2" value="" style="verticalLabelPosition=bottom;html=1;verticalAlign=top;align=center;shape=mxgraph.floorplan.wall;fillColor=#000000;direction=south;" vertex="1" parent="1">
          <mxGeometry x="74" y="460" width="20" height="329" as="geometry" />
        </mxCell>
        <mxCell id="4AgcQlxPXhs_4YghqGDG-3" value="" style="verticalLabelPosition=bottom;html=1;verticalAlign=top;align=center;shape=mxgraph.floorplan.wall;fillColor=#000000;direction=south;" vertex="1" parent="1">
          <mxGeometry x="454" y="680" width="20" height="109" as="geometry" />
        </mxCell>
        <mxCell id="4AgcQlxPXhs_4YghqGDG-4" value="" style="verticalLabelPosition=bottom;html=1;verticalAlign=top;align=center;shape=mxgraph.floorplan.window;rotation=90;" vertex="1" parent="1">
          <mxGeometry x="414" y="724" width="100" height="10" as="geometry" />
        </mxCell>
        <mxCell id="4AgcQlxPXhs_4YghqGDG-5" value="" style="verticalLabelPosition=bottom;html=1;verticalAlign=top;align=center;shape=mxgraph.floorplan.wall;fillColor=#000000;" vertex="1" parent="1">
          <mxGeometry x="459" y="664" width="385" height="20" as="geometry" />
        </mxCell>
        <mxCell id="4AgcQlxPXhs_4YghqGDG-6" value="" style="verticalLabelPosition=bottom;html=1;verticalAlign=top;align=center;shape=mxgraph.floorplan.wall;fillColor=#000000;direction=south;" vertex="1" parent="1">
          <mxGeometry x="840" y="569" width="20" height="110" as="geometry" />
        </mxCell>
        <mxCell id="4AgcQlxPXhs_4YghqGDG-7" value="370" style="shape=dimension;direction=west;whiteSpace=wrap;html=1;align=center;points=[];verticalAlign=top;spacingTop=-8;labelBackgroundColor=#ffffff" vertex="1" parent="1">
          <mxGeometry x="88" y="810" width="370" height="20" as="geometry" />
        </mxCell>
        <mxCell id="4AgcQlxPXhs_4YghqGDG-8" value="110" style="shape=dimension;direction=north;whiteSpace=wrap;html=1;align=right;points=[];verticalAlign=middle;labelBackgroundColor=#ffffff" vertex="1" parent="1">
          <mxGeometry x="488" y="678" width="10" height="111" as="geometry" />
        </mxCell>
        <mxCell id="4AgcQlxPXhs_4YghqGDG-11" value="" style="verticalLabelPosition=bottom;html=1;verticalAlign=top;align=center;shape=mxgraph.floorplan.wall;direction=south;fontColor=#FFFFFF;fillColor=#FFFFFF;" vertex="1" parent="1">
          <mxGeometry x="461.5" y="440" width="5" height="229" as="geometry" />
        </mxCell>
        <mxCell id="4AgcQlxPXhs_4YghqGDG-14" value="" style="verticalLabelPosition=bottom;html=1;verticalAlign=top;align=center;shape=mxgraph.floorplan.wall;fillColor=#000000;" vertex="1" parent="1">
          <mxGeometry x="856" y="564" width="70" height="20" as="geometry" />
        </mxCell>
        <mxCell id="4AgcQlxPXhs_4YghqGDG-15" value="" style="verticalLabelPosition=bottom;html=1;verticalAlign=top;align=center;shape=mxgraph.floorplan.wall;fillColor=#000000;direction=south;" vertex="1" parent="1">
          <mxGeometry x="922" y="335" width="20" height="245" as="geometry" />
        </mxCell>
        <mxCell id="4AgcQlxPXhs_4YghqGDG-16" value="" style="verticalLabelPosition=bottom;html=1;verticalAlign=top;align=center;shape=mxgraph.floorplan.wall;fillColor=#000000;" vertex="1" parent="1">
          <mxGeometry x="851" y="330" width="77" height="20" as="geometry" />
        </mxCell>
        <mxCell id="4AgcQlxPXhs_4YghqGDG-20" value="80" style="shape=dimension;direction=west;whiteSpace=wrap;html=1;align=center;points=[];verticalAlign=top;spacingTop=-8;labelBackgroundColor=#ffffff;fillColor=#FFFFFF;" vertex="1" parent="1">
          <mxGeometry x="845" y="549" width="83" height="20" as="geometry" />
        </mxCell>
        <mxCell id="4AgcQlxPXhs_4YghqGDG-21" value="375" style="shape=dimension;direction=west;whiteSpace=wrap;html=1;align=center;points=[];verticalAlign=top;spacingTop=-8;labelBackgroundColor=#ffffff;fillColor=#000000;fontColor=#000000;" vertex="1" parent="1">
          <mxGeometry x="469" y="694" width="379" height="26" as="geometry" />
        </mxCell>
        <mxCell id="4AgcQlxPXhs_4YghqGDG-24" value="100" style="shape=dimension;direction=north;whiteSpace=wrap;html=1;align=right;points=[];verticalAlign=middle;labelBackgroundColor=#ffffff;fillColor=#000000;fontColor=#000000;" vertex="1" parent="1">
          <mxGeometry x="832" y="570" width="12" height="98" as="geometry" />
        </mxCell>
        <mxCell id="4AgcQlxPXhs_4YghqGDG-27" value="" style="verticalLabelPosition=bottom;html=1;verticalAlign=top;align=center;shape=mxgraph.floorplan.window;fontColor=#000000;fillColor=#FFFFFF;" vertex="1" parent="1">
          <mxGeometry x="856" y="569" width="70" height="10" as="geometry" />
        </mxCell>
        <mxCell id="4AgcQlxPXhs_4YghqGDG-28" value="" style="verticalLabelPosition=bottom;html=1;verticalAlign=top;align=center;shape=mxgraph.floorplan.window;fillColor=#FFFFFF;fontColor=#000000;rotation=90;" vertex="1" parent="1">
          <mxGeometry x="819.5" y="452.5" width="225" height="10" as="geometry" />
        </mxCell>
        <mxCell id="4AgcQlxPXhs_4YghqGDG-29" value="" style="verticalLabelPosition=bottom;html=1;verticalAlign=top;align=center;shape=mxgraph.floorplan.wall;direction=south;fontColor=#FFFFFF;fillColor=#FFFFFF;rotation=90;" vertex="1" parent="1">
          <mxGeometry x="651.35" y="143.34" width="5" height="393.56" as="geometry" />
        </mxCell>
        <mxCell id="4AgcQlxPXhs_4YghqGDG-30" value="" style="verticalLabelPosition=bottom;html=1;verticalAlign=top;align=center;shape=mxgraph.floorplan.wall;fillColor=#000000;direction=south;" vertex="1" parent="1">
          <mxGeometry x="845" y="184" width="20" height="150" as="geometry" />
        </mxCell>
        <mxCell id="4AgcQlxPXhs_4YghqGDG-31" value="" style="verticalLabelPosition=bottom;html=1;verticalAlign=top;align=center;shape=mxgraph.floorplan.wall;fillColor=#000000;" vertex="1" parent="1">
          <mxGeometry x="130" y="170" width="730" height="20" as="geometry" />
        </mxCell>
        <mxCell id="4AgcQlxPXhs_4YghqGDG-32" value="" style="verticalLabelPosition=bottom;html=1;verticalAlign=top;align=center;shape=mxgraph.floorplan.wall;direction=south;fontColor=#FFFFFF;fillColor=#FFFFFF;rotation=90;" vertex="1" parent="1">
          <mxGeometry x="227" y="394.5" width="5" height="280" as="geometry" />
        </mxCell>
        <mxCell id="4AgcQlxPXhs_4YghqGDG-35" value="250" style="shape=dimension;direction=south;whiteSpace=wrap;html=1;align=left;points=[];verticalAlign=middle;labelBackgroundColor=#ffffff;fillColor=#FFFFFF;fontColor=#000000;" vertex="1" parent="1">
          <mxGeometry x="50" y="540" width="29" height="250" as="geometry" />
        </mxCell>
        <mxCell id="4AgcQlxPXhs_4YghqGDG-37" value="" style="verticalLabelPosition=bottom;html=1;verticalAlign=top;align=center;shape=mxgraph.floorplan.wall;fillColor=#000000;direction=south;" vertex="1" parent="1">
          <mxGeometry x="74" y="336" width="20" height="44" as="geometry" />
        </mxCell>
        <mxCell id="4AgcQlxPXhs_4YghqGDG-38" value="" style="verticalLabelPosition=bottom;html=1;verticalAlign=top;align=center;shape=mxgraph.floorplan.wall;fillColor=#000000;direction=south;" vertex="1" parent="1">
          <mxGeometry x="125" y="184" width="20" height="150" as="geometry" />
        </mxCell>
        <mxCell id="4AgcQlxPXhs_4YghqGDG-39" value="" style="verticalLabelPosition=bottom;html=1;verticalAlign=top;align=center;shape=mxgraph.floorplan.wall;fillColor=#000000;" vertex="1" parent="1">
          <mxGeometry x="79" y="330" width="61" height="20" as="geometry" />
        </mxCell>
        <mxCell id="4AgcQlxPXhs_4YghqGDG-40" value="" style="verticalLabelPosition=bottom;html=1;verticalAlign=top;align=center;shape=mxgraph.floorplan.wall;direction=south;fontColor=#FFFFFF;fillColor=#FFFFFF;rotation=90;" vertex="1" parent="1">
          <mxGeometry x="183.04" y="295.35" width="5" height="90" as="geometry" />
        </mxCell>
        <mxCell id="4AgcQlxPXhs_4YghqGDG-41" value="" style="verticalLabelPosition=bottom;html=1;verticalAlign=top;align=center;shape=mxgraph.floorplan.wall;direction=south;fontColor=#FFFFFF;fillColor=#FFFFFF;" vertex="1" parent="1">
          <mxGeometry x="362" y="186.5" width="5" height="150" as="geometry" />
        </mxCell>
        <mxCell id="4AgcQlxPXhs_4YghqGDG-42" value="" style="verticalLabelPosition=bottom;html=1;verticalAlign=top;align=center;shape=mxgraph.floorplan.window;fillColor=#FFFFFF;fontColor=#000000;" vertex="1" parent="1">
          <mxGeometry x="863.5" y="335" width="60" height="10" as="geometry" />
        </mxCell>
        <mxCell id="4AgcQlxPXhs_4YghqGDG-44" value="" style="verticalLabelPosition=bottom;html=1;verticalAlign=top;align=center;shape=mxgraph.floorplan.doorLeft;aspect=fixed;fillColor=#FFFFFF;fontColor=#000000;" vertex="1" parent="1">
          <mxGeometry x="79" y="377.5" width="80" height="85" as="geometry" />
        </mxCell>
        <mxCell id="4AgcQlxPXhs_4YghqGDG-45" value="" style="verticalLabelPosition=bottom;html=1;verticalAlign=top;align=center;shape=mxgraph.floorplan.doorLeft;aspect=fixed;fillColor=#FFFFFF;fontColor=#000000;rotation=90;" vertex="1" parent="1">
          <mxGeometry x="374" y="527" width="80" height="85" as="geometry" />
        </mxCell>
        <mxCell id="4AgcQlxPXhs_4YghqGDG-49" value="220" style="shape=dimension;direction=west;whiteSpace=wrap;html=1;align=center;points=[];verticalAlign=top;spacingTop=-8;labelBackgroundColor=#ffffff;fillColor=#FFFFFF;fontColor=#000000;" vertex="1" parent="1">
          <mxGeometry x="140" y="140" width="220" height="30" as="geometry" />
        </mxCell>
        <mxCell id="4AgcQlxPXhs_4YghqGDG-50" value="" style="verticalLabelPosition=bottom;html=1;verticalAlign=top;align=center;shape=mxgraph.floorplan.wall;direction=south;fontColor=#FFFFFF;fillColor=#FFFFFF;rotation=90;" vertex="1" parent="1">
          <mxGeometry x="337" y="311" width="5" height="60" as="geometry" />
        </mxCell>
        <mxCell id="4AgcQlxPXhs_4YghqGDG-52" value="" style="verticalLabelPosition=bottom;html=1;verticalAlign=top;align=center;shape=mxgraph.floorplan.bed_double;fillColor=#FFFFFF;fontColor=#000000;" vertex="1" parent="1">
          <mxGeometry x="152.5" y="540" width="150" height="220" as="geometry" />
        </mxCell>
        <mxCell id="4AgcQlxPXhs_4YghqGDG-54" value="" style="verticalLabelPosition=bottom;html=1;verticalAlign=top;align=center;shape=mxgraph.floorplan.bookcase;fillColor=#FFFFFF;fontColor=#000000;" vertex="1" parent="1">
          <mxGeometry x="153" y="760" width="149" height="30" as="geometry" />
        </mxCell>
        <mxCell id="4AgcQlxPXhs_4YghqGDG-55" value="" style="verticalLabelPosition=bottom;html=1;verticalAlign=top;align=center;shape=mxgraph.floorplan.table;fillColor=#FFFFFF;fontColor=#000000;" vertex="1" parent="1">
          <mxGeometry x="305.5" y="739" width="140" height="50" as="geometry" />
        </mxCell>
        <mxCell id="4AgcQlxPXhs_4YghqGDG-56" value="" style="verticalLabelPosition=bottom;html=1;verticalAlign=top;align=center;shape=mxgraph.floorplan.dresser;fillColor=#FFFFFF;fontColor=#000000;rotation=-90;" vertex="1" parent="1">
          <mxGeometry x="-5" y="634" width="250" height="60" as="geometry" />
        </mxCell>
        <mxCell id="4AgcQlxPXhs_4YghqGDG-58" value="" style="verticalLabelPosition=bottom;html=1;verticalAlign=top;align=center;shape=mxgraph.floorplan.dresser;fillColor=#FFFFFF;fontColor=#000000;rotation=-90;" vertex="1" parent="1">
          <mxGeometry x="467.5" y="529" width="220" height="60" as="geometry" />
        </mxCell>
        <mxCell id="4AgcQlxPXhs_4YghqGDG-59" value="" style="verticalLabelPosition=bottom;html=1;verticalAlign=top;align=center;shape=mxgraph.floorplan.bed_double;fillColor=#FFFFFF;fontColor=#000000;rotation=-180;" vertex="1" parent="1">
          <mxGeometry x="641.5" y="448" width="180" height="220" as="geometry" />
        </mxCell>
        <mxCell id="4AgcQlxPXhs_4YghqGDG-61" value="" style="verticalLabelPosition=bottom;html=1;verticalAlign=top;align=center;shape=mxgraph.floorplan.wall;direction=south;fontColor=#FFFFFF;fillColor=#FFFFFF;" vertex="1" parent="1">
          <mxGeometry x="540" y="434" width="5" height="235" as="geometry" />
        </mxCell>
        <mxCell id="4AgcQlxPXhs_4YghqGDG-62" value="" style="verticalLabelPosition=bottom;html=1;verticalAlign=top;align=center;shape=mxgraph.floorplan.wall;direction=south;fontColor=#FFFFFF;fillColor=#FFFFFF;" vertex="1" parent="1">
          <mxGeometry x="362" y="540" width="5" height="59" as="geometry" />
        </mxCell>
        <mxCell id="4AgcQlxPXhs_4YghqGDG-63" value="" style="verticalLabelPosition=bottom;html=1;verticalAlign=top;align=center;shape=mxgraph.floorplan.refrigerator;fillColor=#FFFFFF;fontColor=#000000;rotation=-180;" vertex="1" parent="1">
          <mxGeometry x="170" y="467" width="60" height="62" as="geometry" />
        </mxCell>
        <mxCell id="4AgcQlxPXhs_4YghqGDG-64" value="" style="verticalLabelPosition=bottom;html=1;verticalAlign=top;align=center;shape=mxgraph.floorplan.doorLeft;aspect=fixed;fillColor=#FFFFFF;fontColor=#000000;" vertex="1" parent="1">
          <mxGeometry x="459" y="349" width="80" height="85" as="geometry" />
        </mxCell>
        <mxCell id="4AgcQlxPXhs_4YghqGDG-65" value="" style="verticalLabelPosition=bottom;html=1;verticalAlign=top;align=center;shape=mxgraph.floorplan.table;fillColor=#FFFFFF;fontColor=#000000;" vertex="1" parent="1">
          <mxGeometry x="661.5" y="344.5" width="140" height="50" as="geometry" />
        </mxCell>
        <mxCell id="4AgcQlxPXhs_4YghqGDG-66" value="" style="verticalLabelPosition=bottom;html=1;verticalAlign=top;align=center;shape=mxgraph.floorplan.bookcase;fillColor=#FFFFFF;fontColor=#000000;" vertex="1" parent="1">
          <mxGeometry x="91" y="347" width="120" height="30" as="geometry" />
        </mxCell>
        <mxCell id="4AgcQlxPXhs_4YghqGDG-74" value="" style="verticalLabelPosition=bottom;html=1;verticalAlign=top;align=center;shape=mxgraph.floorplan.chair;shadow=0;fillColor=#FFFFFF;fontColor=#000000;" vertex="1" parent="1">
          <mxGeometry x="344.5" y="370" width="40" height="52" as="geometry" />
        </mxCell>
        <mxCell id="4AgcQlxPXhs_4YghqGDG-75" value="" style="verticalLabelPosition=bottom;html=1;verticalAlign=top;align=center;shape=mxgraph.floorplan.chair;shadow=0;direction=west;fillColor=#FFFFFF;fontColor=#000000;" vertex="1" parent="1">
          <mxGeometry x="344.5" y="458" width="40" height="52" as="geometry" />
        </mxCell>
        <mxCell id="4AgcQlxPXhs_4YghqGDG-76" value="" style="verticalLabelPosition=bottom;html=1;verticalAlign=top;align=center;shape=mxgraph.floorplan.chair;shadow=0;direction=north;fillColor=#FFFFFF;fontColor=#000000;" vertex="1" parent="1">
          <mxGeometry x="294.5" y="420" width="52" height="40" as="geometry" />
        </mxCell>
        <mxCell id="4AgcQlxPXhs_4YghqGDG-77" value="" style="verticalLabelPosition=bottom;html=1;verticalAlign=top;align=center;shape=mxgraph.floorplan.chair;shadow=0;direction=south;fillColor=#FFFFFF;fontColor=#000000;" vertex="1" parent="1">
          <mxGeometry x="382.5" y="420" width="52" height="40" as="geometry" />
        </mxCell>
        <mxCell id="4AgcQlxPXhs_4YghqGDG-78" value="" style="shape=rect;shadow=0;fillColor=#FFFFFF;fontColor=#000000;" vertex="1" parent="1">
          <mxGeometry x="314.5" y="390" width="100" height="100" as="geometry" />
        </mxCell>
      </root>
    </mxGraphModel>
  </diagram>
</mxfile>
